<svg xmlns="http://www.w3.org/2000/svg" width="17" height="17" viewBox="0 0 17 17" fill="none">
    <path d="M7.6916 3.33807C7.94605 2.55495 9.05395 2.55495 9.3084 3.33807L10.2175 6.1361C10.3313 6.48631 10.6577 6.72343 11.0259 6.72343H13.968C14.7914 6.72343 15.1337 7.7771 14.4676 8.2611L12.0874 9.99037C11.7895 10.2068 11.6649 10.5905 11.7786 10.9407L12.6878 13.7387C12.9422 14.5218 12.0459 15.173 11.3798 14.6891L8.99962 12.9598C8.7017 12.7433 8.2983 12.7433 8.00038 12.9598L5.62024 14.6891C4.95408 15.173 4.05777 14.5218 4.31222 13.7387L5.22136 10.9407C5.33515 10.5905 5.21049 10.2068 4.91258 9.99037L2.53243 8.26109C1.86628 7.7771 2.20863 6.72343 3.03205 6.72343H5.97407C6.34231 6.72343 6.66867 6.48631 6.78247 6.1361L7.6916 3.33807Z" fill="#EF8A22"/>
  </svg>