<svg xmlns="http://www.w3.org/2000/svg" width="20" height="20" viewBox="0 0 20 20" fill="none">
    <g clip-path="url(#clip0_503_636)">
      <path d="M10.3408 10.8475C10.7207 9.967 11.3926 9.24448 12.2433 8.80182C13.0939 8.35916 14.0712 8.22346 15.0103 8.41762C15.9494 8.61178 16.7928 9.12391 17.3981 9.86762C18.0035 10.6113 18.3338 11.5411 18.3333 12.5C18.3333 15.7217 15 18.3333 10.8333 18.3333C7.43584 18.3333 4.03918 17.65 2.19084 16.2817C1.83584 16.0183 1.66501 15.5883 1.67418 15.1467C1.76501 10.6025 2.18918 1.66667 8.33334 1.66667C8.99639 1.66667 9.63227 1.93006 10.1011 2.3989C10.57 2.86774 10.8333 3.50363 10.8333 4.16667C10.8333 4.6087 10.6577 5.03262 10.3452 5.34518C10.0326 5.65774 9.60871 5.83333 9.16668 5.83333C8.24584 5.83333 7.80001 5.46333 7.50001 5" stroke="white" stroke-width="2" stroke-linecap="round" stroke-linejoin="round"/>
      <path d="M12.4999 11.6667C11.997 11.2893 11.4152 11.0306 10.7981 10.91C10.181 10.7894 9.54456 10.8101 8.93656 10.9704C8.32856 11.1307 7.76473 11.4266 7.28733 11.8358C6.80994 12.245 6.43134 12.757 6.17993 13.3333" stroke="white" stroke-width="2" stroke-linecap="round" stroke-linejoin="round"/>
      <path d="M8.30341 5.6875C6.68258 6.6475 7.91675 10.8333 6.66675 12.5" stroke="white" stroke-width="2" stroke-linecap="round" stroke-linejoin="round"/>
    </g>
    <defs>
      <clipPath id="clip0_503_636">
        <rect width="20" height="20" fill="white"/>
      </clipPath>
    </defs>
  </svg>