<svg xmlns="http://www.w3.org/2000/svg" width="20" height="21" viewBox="0 0 20 21" fill="none">
    <path d="M17.5001 13C17.5005 12.4935 17.4503 11.9882 17.3501 11.4917C17.2521 11.0082 17.1041 10.5362 16.9084 10.0833C16.7228 9.64333 16.491 9.2243 16.2167 8.83334C15.9486 8.43453 15.6415 8.06327 15.3001 7.72501C14.957 7.37152 14.5771 7.05583 14.1667 6.78334C13.7679 6.50755 13.3404 6.27565 12.8917 6.09168L12.5001 5.93334V4.66668C12.5001 4.44566 12.4123 4.2337 12.256 4.07742C12.0997 3.92114 11.8878 3.83334 11.6667 3.83334H8.33341C8.1124 3.83334 7.90044 3.92114 7.74416 4.07742C7.58788 4.2337 7.50008 4.44566 7.50008 4.66668V5.93334L7.08341 6.09168C6.6434 6.27725 6.22437 6.50911 5.83341 6.78334C5.43301 7.04941 5.06154 7.35663 4.72508 7.70001C4.37159 8.04305 4.0559 8.423 3.78341 8.83334C3.50762 9.2322 3.27572 9.65968 3.09175 10.1083C2.89858 10.5621 2.75064 11.0339 2.65008 11.5167C2.55153 12.005 2.50129 12.5018 2.50008 13V15.5H1.66675V17.1667H18.3334V15.5H17.5001V13ZM4.16675 13C4.1676 12.6055 4.20667 12.212 4.28341 11.825C4.35928 11.4503 4.47378 11.0845 4.62508 10.7333C4.77116 10.3867 4.94973 10.0547 5.15841 9.74168C5.58139 9.11858 6.11865 8.58132 6.74175 8.15834C6.98411 7.99885 7.23753 7.85682 7.50008 7.73334V13H9.16675V5.50001H10.8334V13H12.5001V7.73334C12.7617 7.85863 13.015 8.00059 13.2584 8.15834C13.5579 8.37082 13.8368 8.61075 14.0917 8.87501C14.3556 9.12794 14.593 9.40717 14.8001 9.70834C15.0175 10.0174 15.1992 10.35 15.3417 10.7C15.4905 11.0521 15.6049 11.4176 15.6834 11.7917C15.7735 12.1885 15.8238 12.5932 15.8334 13V15.5H4.16675V13Z" fill="white"/>
  </svg>