<svg xmlns="http://www.w3.org/2000/svg" width="20" height="21" viewBox="0 0 20 21" fill="none">
    <path d="M10.0082 12.1667C10.9287 12.1667 11.6749 11.4205 11.6749 10.5C11.6749 9.57954 10.9287 8.83334 10.0082 8.83334C9.08774 8.83334 8.34155 9.57954 8.34155 10.5C8.34155 11.4205 9.08774 12.1667 10.0082 12.1667Z" fill="white"/>
    <path d="M9.17497 18.8333H10.8416L11.2583 13H8.7583L9.17497 18.8333Z" fill="white"/>
    <path d="M9.9999 2.16666C7.97653 2.17856 6.02661 2.92624 4.514 4.27016C3.00138 5.61409 2.0294 7.46246 1.77943 9.47036C1.52946 11.4783 2.01858 13.5085 3.15552 15.1823C4.29246 16.8561 5.99955 18.059 7.95823 18.5667L7.83323 16.8C6.34188 16.2864 5.08095 15.2606 4.27454 13.905C3.46813 12.5494 3.16848 10.9518 3.42886 9.39615C3.68924 7.84047 4.49278 6.42751 5.69665 5.40838C6.90053 4.38926 8.42675 3.83 10.0041 3.83C11.5814 3.83 13.1076 4.38926 14.3115 5.40838C15.5154 6.42751 16.3189 7.84047 16.5793 9.39615C16.8396 10.9518 16.54 12.5494 15.7336 13.905C14.9272 15.2606 13.6663 16.2864 12.1749 16.8L12.0499 18.5667C14.0092 18.0588 15.7168 16.8552 16.8537 15.1805C17.9906 13.5059 18.4791 11.4747 18.228 9.46627C17.977 7.45781 17.0035 5.60938 15.4894 4.26611C13.9752 2.92285 12.024 2.17658 9.9999 2.16666Z" fill="white"/>
    <path d="M12.7666 8.50833C12.8903 8.68501 12.9938 8.87511 13.0749 9.075C13.16 9.27622 13.2242 9.48565 13.2666 9.7C13.3166 9.91868 13.3418 10.1423 13.3416 10.3667C13.3418 10.5938 13.3166 10.8202 13.2666 11.0417C13.2242 11.256 13.16 11.4654 13.0749 11.6667C12.9938 11.8666 12.8903 12.0566 12.7666 12.2333C12.6765 12.3584 12.5791 12.4781 12.4749 12.5917L12.3166 14.775C12.4828 14.6989 12.6442 14.6126 12.7999 14.5167C13.3403 14.1616 13.8049 13.7027 14.1666 13.1667C14.3475 12.9053 14.501 12.6261 14.6249 12.3333C14.7535 12.03 14.8512 11.7145 14.9166 11.3917C14.9791 11.0537 15.0071 10.7103 14.9999 10.3667C14.9968 10.0278 14.9605 9.69009 14.8916 9.35833C14.7659 8.72307 14.5198 8.11774 14.1666 7.575C13.9869 7.3097 13.7832 7.06144 13.5582 6.83333C13.3323 6.60592 13.0838 6.40209 12.8166 6.225C12.5535 6.04444 12.2746 5.88824 11.9832 5.75833C11.6675 5.64047 11.3409 5.55394 11.0082 5.5C10.3454 5.36666 9.66269 5.36666 8.99989 5.5C8.67612 5.56583 8.3604 5.66641 8.05822 5.8C7.76548 5.92384 7.48624 6.07742 7.22489 6.25833C6.95767 6.43542 6.70916 6.63925 6.48322 6.86666C6.24531 7.08236 6.02773 7.31947 5.83322 7.575C5.47118 8.11585 5.21655 8.72129 5.08322 9.35833C5.02257 9.69091 4.99466 10.0286 4.99989 10.3667C4.99933 10.7053 5.03283 11.0431 5.09989 11.375C5.16526 11.6979 5.26298 12.0134 5.39155 12.3167C5.51539 12.6094 5.66898 12.8886 5.84989 13.15C6.21271 13.6795 6.67043 14.1372 7.19989 14.5C7.35553 14.596 7.51694 14.6823 7.68322 14.7583L7.49989 12.5917C7.3957 12.4781 7.29831 12.3584 7.20822 12.2333C7.08445 12.0566 6.98101 11.8666 6.89989 11.6667C6.81477 11.4654 6.75055 11.256 6.70822 11.0417C6.66928 10.8189 6.65531 10.5925 6.66655 10.3667C6.66353 10.1426 6.68589 9.91899 6.73322 9.7C6.77555 9.48565 6.83977 9.27622 6.92489 9.075C7.00601 8.87511 7.10945 8.68501 7.23322 8.50833C7.35502 8.32557 7.49459 8.1553 7.64989 8C7.80024 7.85084 7.96493 7.71686 8.14155 7.6C8.31824 7.47622 8.50833 7.37279 8.70822 7.29166C8.90919 7.20386 9.11861 7.13685 9.33322 7.09166C9.77656 7.00837 10.2315 7.00837 10.6749 7.09166C10.8895 7.13685 11.0989 7.20386 11.2999 7.29166C11.6995 7.44885 12.0605 7.69046 12.3582 8C12.513 8.1536 12.6499 8.32411 12.7666 8.50833Z" fill="white"/>
  </svg>